<?xml version="1.0" encoding="utf-8"?>
<!-- Generator: Adobe Illustrator 22.0.1, SVG Export Plug-In . SVG Version: 6.00 Build 0)  -->
<svg version="1.1" id="Ebene_1" xmlns="http://www.w3.org/2000/svg" xmlns:xlink="http://www.w3.org/1999/xlink" x="0px" y="0px"
	 viewBox="0 0 153.3 146.1" style="enable-background:new 0 0 153.3 146.1;" xml:space="preserve">
<path d="M104.7,25.1h-48C45.8,25.1,36.8,34,36.8,45v48c0,10.9,8.9,19.9,19.9,19.9h48c10.9,0,19.9-8.9,19.9-19.9V45
	C124.6,34,115.6,25.1,104.7,25.1z M112.1,72.3c0,2.8-2.2,5-5,5H89v18.1c0,2.8-2.2,5-5,5h-6.6c-2.7,0-5-2.2-5-5V77.2H54.3
	c-2.8,0-5-2.2-5-5v-6.6c0-2.7,2.2-5,5-5h18.1V42.6c0-2.8,2.2-5,5-5H84c2.8,0,5,2.2,5,5v18.1h18.1c2.8,0,5,2.2,5,5V72.3z"/>
</svg>
