<?xml version="1.0" encoding="utf-8"?>
<!-- Generator: Adobe Illustrator 22.1.0, SVG Export Plug-In . SVG Version: 6.00 Build 0)  -->
<svg version="1.1" id="Ebene_1" xmlns="http://www.w3.org/2000/svg" xmlns:xlink="http://www.w3.org/1999/xlink" x="0px" y="0px"
	 viewBox="0 0 96.5 92.7" style="enable-background:new 0 0 96.5 92.7;" xml:space="preserve">
<style type="text/css">
	.st0{fill:#4E4D4D;}
</style>
<path class="st0" d="M39.1,33.3c-5.9-3.8-11.9-7.6-17.9-11.3c-3.2-1.9-6.6-3.5-9.9-5.3C10,16,8.9,15.2,7.8,14.3
	c-4-3.4-3.6-7.9,1-10.4C14.2,1,19.7,1.4,25.1,3.6c9.2,3.6,16.4,10,23.4,16.7c1.3,1.2,2.4,2.5,3.5,3.6c6.4-3.9,12.4-8,18.7-11.4
	c6.7-3.7,13.8-6.8,20.8-10c0.7-0.3,2.1-0.4,2.5,0c0.5,0.6,0.7,1.9,0.5,2.7c-0.3,1-1.1,2-2,2.6c-10.1,6.5-19.8,13.5-28.8,21.4
	c-1.2,1.1-2.4,2.1-3.6,3.3c2.8,3.6,5.6,7.1,8.3,10.7c10.1,13.7,19,28.2,25.5,44c0.5,1.2,2.1,2.8,0,4c-1.5,0.9-3.8,0-5-1.7
	c-3.3-4.9-6.5-9.9-9.9-14.6c-8.3-11.4-17.6-21.9-28.1-31.4c-0.3-0.3-0.6-0.5-1.2-0.9c-1.9,2.1-3.8,4.2-5.6,6.3
	C34.7,59.4,27,71,20.9,83.7c-0.9,1.9-2,3.6-3.3,5.2c-3.2,3.9-7.7,3.4-10.2-0.9C4,82.3,4.6,76.6,6.9,70.8c3.2-7.9,8.4-14.5,14.3-20.4
	C26.9,44.6,32.8,39.2,39.1,33.3z"/>
</svg>
