<?xml version="1.0" encoding="utf-8"?>
<!-- Generator: Adobe Illustrator 22.0.1, SVG Export Plug-In . SVG Version: 6.00 Build 0)  -->
<svg version="1.1" id="Ebene_1" xmlns="http://www.w3.org/2000/svg" xmlns:xlink="http://www.w3.org/1999/xlink" x="0px" y="0px"
	 viewBox="0 0 228.1 226" style="enable-background:new 0 0 228.1 226;" xml:space="preserve">
<style type="text/css">
	.st0{fill:none;stroke:#4E4D4D;stroke-miterlimit:10;}
</style>
<path class="st0" d="M36.5,71.8c0-12.7,0-25.3,0-38c0-0.1,0-0.1,0.1-0.2c0.2-1.1,0.9-1.8,1.9-2.1c0.1,0,0.2-0.1,0.4-0.1
	c8.8,0,17.6,0,26.4,0c0,0,0.1,0,0.1,0c1.7,0.2,3.2,0.9,4.4,2.1c2.4,2.4,4.8,4.9,7.3,7.3c0.8,0.7,1.3,1.6,1.6,2.6
	c0.2,0.6,0.3,1.2,0.5,1.7c0,8.8,0,17.7,0,26.5c-0.1,0.5-0.3,1-0.7,1.4c-0.4,0.5-1,0.7-1.6,0.9c-12.7,0-25.3,0-38,0
	c-0.1,0-0.1,0-0.2-0.1c-1.1-0.2-1.8-0.9-2.1-2C36.6,71.9,36.5,71.8,36.5,71.8z M40.1,35c0,11.8,0,23.6,0,35.5c1.2,0,2.4,0,3.6,0
	c0-0.1,0-0.2,0-0.4c0-3.7,0-7.5,0-11.2c0-0.8,0.3-1.4,0.9-1.9c0.6-0.5,1.2-0.7,2-0.7c7.5,0,15.1,0,22.6,0c0.1,0,0.1,0,0.2,0
	c1.5,0.1,2.7,1.2,2.7,2.6c0,3.8,0,7.5,0,11.3c0,0.1,0,0.2,0,0.3c1.2,0,2.4,0,3.6,0c0-0.1,0-0.3,0-0.4c0-8.1,0-16.2,0-24.3
	c0-0.9-0.3-1.7-0.9-2.3c-2.5-2.5-4.9-4.9-7.4-7.4c-0.5-0.5-1.2-0.9-1.9-1c-0.1,0-0.3,0-0.4,0c0,0.1,0,0.3,0,0.4c0,3.7,0,7.4,0,11.2
	c0,1.5-1.2,2.7-2.7,2.7c-5.3,0-10.6,0-16,0c-1.4,0-2.7-1.1-2.6-2.7c0-3.7,0-7.5,0-11.2c0-0.1,0-0.2,0-0.3C42.4,35,41.3,35,40.1,35z
	 M68.5,59.8c-7.1,0-14.2,0-21.3,0c0,3.6,0,7.1,0,10.6c7.1,0,14.2,0,21.3,0C68.5,66.9,68.5,63.4,68.5,59.8z M61.3,40.3
	c0-1.5,0-3,0-4.5c0-0.5-0.3-0.8-0.8-0.8c-1.8,0-3.6,0-5.4,0c-0.5,0-0.8,0.3-0.8,0.8c0,3,0,6,0,8.9c0,0.5,0.4,0.9,0.8,0.9
	c1.8,0,3.6,0,5.4,0c0.5,0,0.8-0.4,0.8-0.9C61.3,43.3,61.3,41.8,61.3,40.3z"/>
</svg>
