<svg id="Ebene_1" data-name="Ebene 1" xmlns="http://www.w3.org/2000/svg" viewBox="0 0 149.93 149.93">
  <defs>
    <style>
      .cls-1 {
        fill: #4e4d4d;
      }
    </style>
  </defs>
  <title>senden</title>
  <path class="cls-1" d="M39.1,127.18v-2.07c.79-2.06,2.48-3.16,4.3-4.21q34.48-19.83,68.93-39.71,35.23-20.28,70.47-40.53h1.78A6.75,6.75,0,0,1,189,45.11v2.37a4.51,4.51,0,0,0-.3.81q-5.08,30.49-10.15,61-5.46,32.75-10.94,65.49c-.71,4.23-4,6.08-7.94,4.46q-21-8.55-42-17.15a1.94,1.94,0,0,0-2.61.57q-11.27,12.47-22.66,24.83a33.81,33.81,0,0,1-3.83,3.12H86.21c-3.06-1.08-4.2-3.22-4.17-6.48.12-11.75,0-23.5.07-35.25a1.74,1.74,0,0,0-1.24-2c-12.39-5-24.73-10.07-37.12-15.05C41.45,130.93,39.71,129.68,39.1,127.18Zm17.5-1.66c.76.35,1.2.56,1.66.75,8.3,3.38,16.62,6.74,24.9,10.17a2.56,2.56,0,0,0,2.91-.34q34.29-25.46,68.64-50.84l1.46-1.05.2.24-39.48,65.8,41.25,16.84,18.5-110.74Z" transform="translate(-39.1 -40.67)"/>
</svg>
