<?xml version="1.0" encoding="utf-8"?>
<!-- Generator: Adobe Illustrator 22.0.1, SVG Export Plug-In . SVG Version: 6.00 Build 0)  -->
<svg version="1.1" id="Ebene_1" xmlns="http://www.w3.org/2000/svg" xmlns:xlink="http://www.w3.org/1999/xlink" x="0px" y="0px"
	 viewBox="0 0 228.1 226" style="enable-background:new 0 0 228.1 226;" xml:space="preserve">
<style type="text/css">
	.st0{fill:#4E4D4D;}
</style>
<path class="st0" d="M183.8,193.9c-44.9,0-89.9,0-134.8,0c-1.3-0.6-2.7-1.1-3.9-1.8c-2.3-1.5-3.3-3.8-4-6.4c0-52.9,0-105.9,0-158.8
	c0.3-0.9,0.6-1.9,1-2.8c1.4-3.1,4.1-4.6,7.2-5.4c26.5,0,53,0,79.6,0c0,9.9,0,19.9,0,29.8c0,7.6,0,15.2,0,22.9
	c0,5.7,4.3,10.1,9.9,10.2c17.7,0,35.3,0,53,0c0,34.8,0,69.7,0,104.5c-0.6,1.4-1.1,2.8-1.9,4.1C188.4,192.2,186.1,193.1,183.8,193.9z
	 M116.4,156.3c10.9,0,21.8,0,32.7,0c0.7,0,1.4,0,2.1,0c1.8-0.1,2.7-1.1,2.7-2.9c0-2.2-0.1-4.4,0-6.6c0.1-1.4-0.6-2.3-1.7-2.7
	c-0.8-0.3-1.7-0.4-2.6-0.4c-22.1,0-44.2,0-66.3,0c-0.4,0-0.8,0-1.3,0c-2.1,0.2-3.1,1.3-3.1,3.4c0,1.8,0,3.6,0,5.4
	c0,3.2,0.7,3.9,3.9,3.9C94,156.3,105.2,156.3,116.4,156.3z M116.3,106.1c11.6,0,23.1,0,34.7,0c1.9,0,2.8-0.9,2.8-2.8
	c0-2.2,0-4.4,0-6.6c0-1.7-0.9-2.8-2.6-2.9c-0.5,0-0.9,0-1.4,0c-22.3,0-44.6,0-66.9,0c-0.5,0-1,0-1.4,0c-1.6,0.2-2.6,1.2-2.6,2.8
	c0,2.3,0,4.5,0,6.8c0,1.8,0.9,2.7,2.8,2.7C93.3,106.1,104.8,106.1,116.3,106.1z M116.4,131.1c11.6,0,23.2,0,34.9,0
	c1.7,0,2.6-0.9,2.6-2.6c0-2.3-0.1-4.5,0-6.8c0-1.5-0.6-2.3-1.9-2.7c-0.7-0.2-1.5-0.3-2.3-0.3c-22.1,0-44.3,0-66.4,0
	c-0.6,0-1.3,0-1.9,0.1c-1.7,0.4-2.4,1.3-2.4,3c0,2.3,0,4.5,0,6.8c0,1.6,1,2.5,2.6,2.5C93.1,131.1,104.8,131.1,116.4,131.1z
	 M187.8,68.7c-1.2-1.5-2.1-2.7-3.2-3.8c-5.4-5.5-10.9-10.9-16.4-16.4c-7.5-7.5-14.9-14.9-22.5-22.4c-1.2-1.2-2.6-2.2-4.2-3.6
	c0,15.7,0,30.9,0,46.2C156.9,68.7,172.2,68.7,187.8,68.7z"/>
</svg>
