<svg id="Ebene_1" data-name="Ebene 1" xmlns="http://www.w3.org/2000/svg" viewBox="0 0 50 37.72">
  <defs>
    <style>
      .cls-1 {
        fill: #4e4e4e;
      }
    </style>
  </defs>
  <title>add_customer</title>
  <path class="cls-1" d="M2,35.33a18.69,18.69,0,0,1,1.16-7A9,9,0,0,1,8.49,23a6,6,0,0,1,1.79-.37,2.4,2.4,0,0,1,1.28.5,14.37,14.37,0,0,0,5,2.6,11.3,11.3,0,0,0,9.65-2.11,3.27,3.27,0,0,1,2.7-1,6.5,6.5,0,0,1,4.2,2.22c-1.72,0-3.38,0-5,0a3.31,3.31,0,0,0-3.33,2.78c0,.12,0,.24,0,.36,0,1.69,0,3.37,0,5.06a3,3,0,0,0,3,3c2.05,0,4.1,0,6.27,0v.85c0,1.53,0,3.05,0,4.58-.31,1.61-1.55,1.66-5.1,1.72H7.61C4,43.2,2,39,2,35.33ZM19.21,5.48a9.31,9.31,0,1,0,9.3,9.3A9.31,9.31,0,0,0,19.21,5.48ZM50.88,27.21H42.74V19.07a1.16,1.16,0,0,0-1.15-1.15H37.43a1.15,1.15,0,0,0-1.14,1.15v8.14H28.15A1.14,1.14,0,0,0,27,28.36v4.15a1.14,1.14,0,0,0,1.15,1.15h8.14V41.8A1.15,1.15,0,0,0,37.43,43h4.16a1.16,1.16,0,0,0,1.15-1.15V33.66h8.14A1.14,1.14,0,0,0,52,32.51V28.36A1.14,1.14,0,0,0,50.88,27.21Z" transform="translate(-2.02 -5.48)"/>
</svg>
