<svg id="Ebene_1" data-name="Ebene 1" xmlns="http://www.w3.org/2000/svg" viewBox="0 0 122.71 122.71">
  <defs>
    <style>
      .cls-1 {
        fill: none;
        stroke: #f2f2f2;
        stroke-miterlimit: 10;
      }
    </style>
  </defs>
  <title>refresh</title>
  <path class="cls-1" d="M217,114c-1.19,3.08-3.45,4.28-6.72,4.25-11-.08-22.07,0-33.11,0-3.41,0-6.05-2.5-5.65-5.62a6.83,6.83,0,0,1,1.79-3.52c3-3.23,6.23-6.31,9.36-9.44.36-.36.7-.74,1.11-1.17A33.66,33.66,0,0,0,174,91.62c-15.55-6.91-30.19-5.3-43.67,5.17a34,34,0,0,0-10.5,13.64c-.83,1.95-1.68,3.89-2.52,5.83a3,3,0,0,1-3,1.92c-4.76,0-9.53,0-14.29,0-2.43,0-3.66-1.69-3.07-4a61.84,61.84,0,0,1,16.92-29.84,58,58,0,0,1,32-16.18c2.08-.33,4.18-.57,6.27-.86h7.36c1.29.18,2.59.36,3.88.53a61.06,61.06,0,0,1,33.72,15.49c.3.27.63.51,1.11.9.43-.51.75-1,1.15-1.38,2.94-2.93,5.86-5.87,8.84-8.75,2.18-2.11,5-2.27,7-.36A14.8,14.8,0,0,1,217,76.32ZM95.29,179.91c.93,1.13,1.68,2.52,2.83,3.33,1.82,1.28,4.14.76,5.9-1,3-3,6-6,9-9,.36-.36.73-.7,1-1,2.52,2,4.87,4,7.41,5.8A58.91,58.91,0,0,0,151,188.72a5.26,5.26,0,0,1,.93.24h8.49c1.95-.28,3.9-.54,5.84-.85,14.06-2.28,25.64-9,35-19.65a61.51,61.51,0,0,0,13.54-26.54,2.9,2.9,0,0,0-3-3.87c-4.62,0-9.24,0-13.86,0A3,3,0,0,0,195,139.9c-.25.56-.49,1.12-.72,1.69-1.88,4.48-3.82,8.91-7,12.67a40.33,40.33,0,0,1-52.54,8.23c-2.17-1.35-4.14-3-6.5-4.78a18.24,18.24,0,0,0,1.51-1.17c3.12-3.08,6.28-6.13,9.28-9.32a6.59,6.59,0,0,0,1.75-3.39c.42-3.25-2.23-5.77-5.8-5.77-10.84,0-21.69.06-32.53,0-3.38,0-5.84,1.05-7.16,4.26Z" transform="translate(-94.79 -66.76)"/>
</svg>
