<svg id="Ebene_1" data-name="Ebene 1" xmlns="http://www.w3.org/2000/svg" viewBox="0 0 50 50">
  <defs>
    <style>
      .cls-1 {
        fill: #e83b3b;
      }
    </style>
  </defs>
  <title>remove</title>
  <path class="cls-1" d="M27.15,3.5a25,25,0,1,0,25,25A25,25,0,0,0,27.15,3.5ZM41.73,30.55a2,2,0,0,1-2.11,2.1H14.85a2.06,2.06,0,0,1-2.28-2.23c0-1.28,0-2.57,0-3.85a2.06,2.06,0,0,1,2.23-2.22q12.36,0,24.7,0a2,2,0,0,1,2.23,2.28C41.74,27.94,41.74,29.24,41.73,30.55Z" transform="translate(-2.15 -3.5)"/>
</svg>
